<svg 
 xmlns="http://www.w3.org/2000/svg"
 xmlns:xlink="http://www.w3.org/1999/xlink"
 width="65px" height="59px">
<defs>
<linearGradient id="PSgrad_0" x1="54.464%" x2="0%" y1="83.867%" y2="0%">
  <stop offset="0%" stop-color="rgb(203,61,70)" stop-opacity="1" />
  <stop offset="100%" stop-color="rgb(201,34,159)" stop-opacity="1" />
</linearGradient>

</defs>
<path fill-rule="evenodd"  fill="rgb(0, 0, 0)"
 d="M48.515,0.918 C39.703,0.918 32.558,9.567 32.558,20.235 C32.558,9.567 25.414,0.918 16.601,0.918 C7.788,0.918 0.644,9.815 0.644,20.235 C0.644,40.593 32.558,58.871 32.558,58.871 C32.558,58.871 64.473,40.593 64.473,20.235 C64.473,9.815 57.328,0.918 48.515,0.918 Z"/>
<path fill="url(#PSgrad_0)"
 d="M48.515,0.918 C39.703,0.918 32.558,9.567 32.558,20.235 C32.558,9.567 25.414,0.918 16.601,0.918 C7.788,0.918 0.644,9.815 0.644,20.235 C0.644,40.593 32.558,58.871 32.558,58.871 C32.558,58.871 64.473,40.593 64.473,20.235 C64.473,9.815 57.328,0.918 48.515,0.918 Z"/>
</svg>